<svg xmlns="http://www.w3.org/2000/svg" width="500" height="500" style="width:100%;height:100%"><defs><clipPath id="a"><path d="M0 0h500v500H0z"/></clipPath></defs><g clip-path="url(#a)"><g display="block"><path stroke-linecap="round" stroke-linejoin="round" stroke="#121331" stroke-width="12.950000000000001" d="M153.337 313.363s-8.476 1.087-12.28 5.805c-5.957 7.385-5.831 19.632 15.055 19.632H331.4" fill="none"/><path stroke="#08A88A" stroke-width="12.950000000000001" d="M169.062 338.8c15.316 0 27.75 12.435 27.75 27.75s-12.434 27.75-27.75 27.75c-15.315 0-27.75-12.435-27.75-27.75s12.435-27.75 27.75-27.75zM333.25 338.8c15.315 0 27.75 12.435 27.75 27.75s-12.435 27.75-27.75 27.75-27.75-12.435-27.75-27.75 12.435-27.75 27.75-27.75z" fill="none"/></g><path stroke-linecap="round" stroke-linejoin="round" stroke="#121331" stroke-width="12.950000000000001" d="M66.85 109.4h25.437c14.04 0 28.188 16.35 31.575 36.488L151.95 312.9m-25.674-166.6l245.824.087 39.313.013s0 0 0 0c1.276 0 1.908 1.394 1.411 3.11 0 0 0 0 0 0l-11.203 38.646-18.756 64.695c-5.686 19.612-26.776 37.413-47.065 39.725l-145.7 16.598c-20.29 2.312-39.514 5.49-42.903 7.091 0 0-2.336-1.815-6.14 2.903" fill="none" display="block"/></g></svg>